<svg width="24" height="24" viewBox="0 0 24 24" fill="none" xmlns="http://www.w3.org/2000/svg">
<path d="M12.5 17C12.5004 15.9766 13.0225 15.0239 13.885 14.473C13.9566 14.4266 13.9998 14.3473 14 14.262V13.75C14 11.174 16.64 9.25 19 9.25C19.9073 9.26469 20.7952 9.51449 21.577 9.975C21.6499 10.0164 21.7385 10.0187 21.8134 9.98112C21.8883 9.94357 21.9396 9.87113 21.95 9.788C21.9823 9.52656 21.999 9.26343 22 9C22 4.038 17.065 0 11 0C4.935 0 0 4.038 0 9C0.0374923 11.2349 0.999467 13.3544 2.657 14.854L1.03 19.329C0.962485 19.5154 1.01146 19.7241 1.15484 19.8609C1.29823 19.9978 1.50894 20.0371 1.692 19.961L7.524 17.532C8.65672 17.8418 9.82568 17.9992 11 18C11.4259 17.998 11.8514 17.9746 12.275 17.93C12.4027 17.9176 12.5001 17.8103 12.5 17.682V17Z" fill="#6C6C78"/>
<path fill-rule="evenodd" clip-rule="evenodd" d="M22.5 15.5V14.25C22.5 12.317 20.933 10.75 19 10.75C17.067 10.75 15.5 12.317 15.5 14.25V15.5C14.6716 15.5 14 16.1716 14 17V22.5C14 23.3284 14.6716 24 15.5 24H22.5C23.3284 24 24 23.3284 24 22.5V17C24 16.1716 23.3284 15.5 22.5 15.5ZM19 12.75C19.8284 12.75 20.5 13.4216 20.5 14.25V15.5H17.5V14.25C17.5 13.4216 18.1716 12.75 19 12.75ZM19 21.25C19.5523 21.25 20 20.8023 20 20.25C20 19.6977 19.5523 19.25 19 19.25C18.4477 19.25 18 19.6977 18 20.25C18 20.8023 18.4477 21.25 19 21.25Z" fill="#6C6C78"/>
</svg>
